<?xml version="1.0" encoding="iso-8859-1"?>
<!-- Generator: Adobe Illustrator 16.0.0, SVG Export Plug-In . SVG Version: 6.00 Build 0)  -->
<!DOCTYPE svg PUBLIC "-//W3C//DTD SVG 1.1//EN" "http://www.w3.org/Graphics/SVG/1.1/DTD/svg11.dtd">
<svg xmlns="http://www.w3.org/2000/svg" xmlns:xlink="http://www.w3.org/1999/xlink" version="1.1" id="Capa_1" x="0px" y="0px" width="512px" height="512px" viewBox="0 0 470.947 470.947" style="enable-background:new 0 0 470.947 470.947;" xml:space="preserve">
<g>
	<g id="Layer_2_26_">
		<g>
			<path d="M235.471,77.494c-87.107,0-157.97,70.869-157.97,157.979c0,87.107,70.862,157.977,157.97,157.977     c87.111,0,157.978-70.869,157.978-157.977C393.448,148.362,322.582,77.494,235.471,77.494z" fill="#FFFFFF"/>
			<path d="M235.471,470.944C105.632,470.944,0,365.314,0,235.473C0,105.636,105.632,0.003,235.471,0.003     s235.476,105.633,235.476,235.47C470.946,365.314,365.311,470.944,235.471,470.944z M235.471,54.691     c-99.681,0-180.777,81.098-180.777,180.782c0,99.681,81.097,180.779,180.777,180.779c99.686,0,180.782-81.099,180.782-180.779     C416.253,135.79,335.156,54.691,235.471,54.691z" fill="#FFFFFF"/>
		</g>
	</g>
</g>
<g>
</g>
<g>
</g>
<g>
</g>
<g>
</g>
<g>
</g>
<g>
</g>
<g>
</g>
<g>
</g>
<g>
</g>
<g>
</g>
<g>
</g>
<g>
</g>
<g>
</g>
<g>
</g>
<g>
</g>
</svg>
